<svg xmlns="http://www.w3.org/2000/svg" viewBox="0 0 24 24"><defs><style>.b{fill:#fff}.c{fill:#864e20}.d{fill:#f5b779}</style></defs><rect x="1" y="1" width="22" height="22" rx="7.656" style="fill:#f8de40"/><path class="b" d="M7.055 7.313A1.747 1.747 0 1 0 8.8 9.059a1.747 1.747 0 0 0-1.745-1.746z"/><path class="c" d="M7.055 8.51a.55.55 0 1 0 .549.549.549.549 0 0 0-.549-.549z"/><path class="b" d="M16.958 7.313A1.747 1.747 0 1 0 18.7 9.059a1.747 1.747 0 0 0-1.742-1.746z"/><path class="d" d="M7.055 12.9A1.747 1.747 0 1 0 8.8 14.643 1.748 1.748 0 0 0 7.055 12.9zM16.958 12.9a1.747 1.747 0 1 0 1.742 1.743 1.748 1.748 0 0 0-1.742-1.743z"/><path d="M23 13.938a14.69 14.69 0 0 1-12.406 6.531c-5.542 0-6.563-1-9.142-2.529A7.66 7.66 0 0 0 8.656 23h6.688A7.656 7.656 0 0 0 23 15.344z" style="fill:#e7c930"/><path class="c" d="M13.709 13.063h-3.418c-.288 0-.521.139-.521.312s.233.312.521.312h3.418c.288 0 .521-.139.521-.312s-.23-.312-.521-.312zM16.957 8.51a.55.55 0 1 0 .55.549.55.55 0 0 0-.55-.549z"/></svg>