<svg xmlns="http://www.w3.org/2000/svg" xmlns:xlink="http://www.w3.org/1999/xlink" viewBox="0 0 48 48"><defs><radialGradient id="radial-gradient" cx="25.285" cy="28.999" r="6" gradientTransform="rotate(-.156 -1753.99 -1994.888) scale(1.167)" gradientUnits="userSpaceOnUse"><stop offset="0" stop-color="#ff568d"/><stop offset=".454" stop-color="#ff9678"/><stop offset=".817" stop-color="#ffc26a"/><stop offset="1" stop-color="#ffd364"/></radialGradient><radialGradient id="radial-gradient-2" cx="3.285" cy="28.999" r="6" gradientTransform="rotate(-.156 -1755.462 -3341.71) scale(1.167)" xlink:href="#radial-gradient"/><style>.cls-3{fill:#ffb32b}.cls-4{fill:#f6fafd}.cls-7{fill:#273941}</style></defs><g id="_15-kiss_love" data-name="15-kiss love"><circle cx="24" cy="23" r="23" style="fill:#ffce52"/><path d="M23.946 3C36.1 2.967 45.969 11.447 46 21.94h.975a23 23 0 0 0-45.949.124H2C1.969 11.566 11.8 3.033 23.946 3z" style="fill:#ffe369"/><path class="cls-3" d="M46 21.94c.026 10.494-9.8 19.027-21.951 19.06S2.026 32.553 2 22.06h-.974a22.14 22.14 0 0 0-.023 1 23 23 0 0 0 46-.124c0-.336-.013-.668-.028-1z"/><ellipse class="cls-4" cx="36.458" cy="7.466" rx=".825" ry="1.148" transform="rotate(-45.175 36.458 7.466)"/><ellipse class="cls-4" cx="30.192" cy="2.983" rx=".413" ry=".574" transform="rotate(-45.175 30.191 2.984)"/><ellipse class="cls-4" cx="33.452" cy="5.474" rx="1.65" ry="2.297" transform="rotate(-45.175 33.453 5.474)"/><circle cx="35.016" cy="28.97" r="7" style="fill:url(#radial-gradient)"/><circle cx="13.016" cy="29.03" r="7" style="fill:url(#radial-gradient-2)"/><path class="cls-7" d="M24.043 39a3 3 0 0 1-3.008-2.992l2-.005a1 1 0 1 0 1-1 1 1 0 1 1-.006-2 1 1 0 1 0-1-1l-2 .005a3 3 0 1 1 5.24 1.986A3 3 0 0 1 24.043 39z"/><ellipse class="cls-7" cx="14.989" cy="19.024" rx="3" ry="4" transform="translate(-.052 .041)"/><ellipse cx="14.989" cy="19.024" rx="2" ry="3" transform="rotate(-.156 15.032 19.12)" style="fill:#141e21"/><circle class="cls-4" cx="15.986" cy="18.022" r="1"/><path class="cls-7" d="M39.995 20.957h-2a3 3 0 1 0-6 .016l-2 .006a5 5 0 1 1 10-.027z"/><path d="M34.245 37.639c-.44-.433-3.029-7.438 1.022-11.47a3.65 3.65 0 0 1 5.34-.089c1.32 1.3 1.3 3.062.389 4.839 1.79-.911 3.57-.94 4.89.359a3.564 3.564 0 0 1-.061 5.287c-4.051 4.035-10.7 1.94-11.58 1.074z" style="fill:#cf4054"/><path d="M45.886 31.278c-1.32-1.3-3.1-1.27-4.89-.359.91-1.777.931-3.54-.389-4.839a3.65 3.65 0 0 0-5.34.089c-4.051 4.032-1.462 11.037-1.022 11.47.88.866 7.529 2.958 11.58-1.074a3.564 3.564 0 0 0 .061-5.287zm-1.718 3.97c-2.894 2.88-7.644 1.386-8.272.767-.314-.309-2.164-5.313.73-8.193a2.607 2.607 0 0 1 3.814-.063 2.778 2.778 0 0 1 .278 3.456 2.853 2.853 0 0 1 3.493.257 2.546 2.546 0 0 1-.043 3.776z" style="fill:#ae2d4c"/><ellipse class="cls-4" cx="44.03" cy="33.946" rx=".825" ry="1.148" transform="rotate(-45.175 44.03 33.946)"/><ellipse class="cls-4" cx="44.772" cy="32.444" rx=".413" ry=".574" transform="rotate(-45.175 44.772 32.444)"/><path class="cls-3" d="M35.4 38.244a3.69 3.69 0 0 1-1.153-.6 10.933 10.933 0 0 1-1.172-4.374 13.758 13.758 0 0 0 .834 5.69 2.586 2.586 0 0 0 .343.684 8.7 8.7 0 0 0 4.181 1.256 23.191 23.191 0 0 0 2.172-2 12.22 12.22 0 0 1-5.205-.656z"/></g></svg>